<svg viewBox="0 0 24 24" fill="none" xmlns="http://www.w3.org/2000/svg"><g transform="translate(0 0) scale(1)"><g transform="translate(0 0) scale(1)"><g transform="translate(0 0) scale(1)">
    <mask id="mask0_421_138" style="mask-type:alpha" maskUnits="userSpaceOnUse" x="0" y="0" width="24" height="24">
        <rect width="24" height="24"/>
    </mask>
    <g mask="url(#mask0_421_138)">
        <path d="M20.3653 21.5C20.1524 21.5 19.9743 21.4282 19.8308 21.2845C19.6871 21.141 19.6153 20.9628 19.6153 20.75V3.25C19.6153 3.03717 19.6871 2.859 19.8308 2.7155C19.9743 2.57183 20.1524 2.5 20.3653 2.5C20.5781 2.5 20.7563 2.57183 20.9 2.7155C21.0435 2.859 21.1153 3.03717 21.1153 3.25V20.75C21.1153 20.9628 21.0435 21.141 20.9 21.2845C20.7563 21.4282 20.5781 21.5 20.3653 21.5ZM10.1443 16.6538C9.7981 16.6538 9.5016 16.5304 9.25477 16.2837C9.0081 16.0369 8.88477 15.7404 8.88477 15.3943C8.88477 15.0481 9.0081 14.7516 9.25477 14.5048C9.5016 14.2581 9.7981 14.1348 10.1443 14.1348H16.0673C16.4134 14.1348 16.7099 14.2581 16.9568 14.5048C17.2034 14.7516 17.3268 15.0481 17.3268 15.3943C17.3268 15.7404 17.2034 16.0369 16.9568 16.2837C16.7099 16.5304 16.4134 16.6538 16.0673 16.6538H10.1443ZM4.14427 9.86525C3.7981 9.86525 3.5016 9.74192 3.25477 9.49525C3.0081 9.24842 2.88477 8.95192 2.88477 8.60575C2.88477 8.25958 3.0081 7.96308 3.25477 7.71625C3.5016 7.46958 3.7981 7.34625 4.14427 7.34625H16.0673C16.4134 7.34625 16.7099 7.46958 16.9568 7.71625C17.2034 7.96308 17.3268 8.25958 17.3268 8.60575C17.3268 8.95192 17.2034 9.24842 16.9568 9.49525C16.7099 9.74192 16.4134 9.86525 16.0673 9.86525H4.14427Z"/>
    </g>
</g></g></g></svg>
