<svg viewBox="0 0 24 24" fill="none" xmlns="http://www.w3.org/2000/svg"><g transform="translate(0 0) scale(1)"><g transform="translate(0 0) scale(1)">
    <mask id="mask0_421_128" style="mask-type:alpha" maskUnits="userSpaceOnUse" x="0" y="0" width="24" height="24">
        <rect width="24" height="24"/>
    </mask>
    <g mask="url(#mask0_421_128)">
        <path d="M3.63477 21.5C3.42193 21.5 3.24368 21.4282 3.10002 21.2845C2.95652 21.141 2.88477 20.9628 2.88477 20.75V3.25C2.88477 3.03717 2.95652 2.859 3.10002 2.7155C3.24368 2.57183 3.42193 2.5 3.63477 2.5C3.8476 2.5 4.02577 2.57183 4.16927 2.7155C4.31293 2.859 4.38477 3.03717 4.38477 3.25V20.75C4.38477 20.9628 4.31293 21.141 4.16927 21.2845C4.02577 21.4282 3.8476 21.5 3.63477 21.5ZM7.93277 16.6538C7.5866 16.6538 7.2901 16.5304 7.04327 16.2837C6.7966 16.0369 6.67327 15.7404 6.67327 15.3943C6.67327 15.0481 6.7966 14.7516 7.04327 14.5048C7.2901 14.2581 7.5866 14.1348 7.93277 14.1348H13.8558C14.2019 14.1348 14.4984 14.2581 14.7453 14.5048C14.9919 14.7516 15.1153 15.0481 15.1153 15.3943C15.1153 15.7404 14.9919 16.0369 14.7453 16.2837C14.4984 16.5304 14.2019 16.6538 13.8558 16.6538H7.93277ZM7.93277 9.86525C7.5866 9.86525 7.2901 9.74192 7.04327 9.49525C6.7966 9.24842 6.67327 8.95192 6.67327 8.60575C6.67327 8.25958 6.7966 7.96308 7.04327 7.71625C7.2901 7.46958 7.5866 7.34625 7.93277 7.34625H19.8558C20.2019 7.34625 20.4984 7.46958 20.7453 7.71625C20.9919 7.96308 21.1153 8.25958 21.1153 8.60575C21.1153 8.95192 20.9919 9.24842 20.7453 9.49525C20.4984 9.74192 20.2019 9.86525 19.8558 9.86525H7.93277Z"/>
    </g>
</g></g></svg>
