<svg preserveAspectRatio="none" overflow="visible" style="display: block;" viewBox="0 0 24 24" fill="none" xmlns="http://www.w3.org/2000/svg"><g transform="translate(0 0) scale(1)"><g transform="translate(0 0) scale(1)"><g transform="translate(0 0) scale(1)"><g transform="translate(0 0) scale(1)"><g transform="translate(0 0) scale(1)"><g transform="translate(0 0) scale(1)"><g transform="translate(0 0) scale(1)"><g transform="translate(0 0) scale(1)"><g transform="translate(0 0) scale(1.3333333333333333)">
<g id="drag_indicator">
<mask id="mask0_246_523" style="mask-type:alpha" maskUnits="userSpaceOnUse" x="0" y="0" width="18" height="18">
<rect id="Bounding box" width="18" height="18" fill="var(--fill-0, #D9D9D9)"/>
</mask>
<g mask="url(#mask0_246_523)">
<path id="drag_indicator_2" d="M6.75001 14.7114C6.41689 14.7114 6.1317 14.5928 5.89445 14.3556C5.6572 14.1183 5.53857 13.8331 5.53857 13.5C5.53857 13.1669 5.6572 12.8817 5.89445 12.6444C6.1317 12.4072 6.41689 12.2886 6.75001 12.2886C7.08314 12.2886 7.36832 12.4072 7.60557 12.6444C7.84282 12.8817 7.96145 13.1669 7.96145 13.5C7.96145 13.8331 7.84282 14.1183 7.60557 14.3556C7.36832 14.5928 7.08314 14.7114 6.75001 14.7114ZM11.25 14.7114C10.9169 14.7114 10.6317 14.5928 10.3944 14.3556C10.1572 14.1183 10.0386 13.8331 10.0386 13.5C10.0386 13.1669 10.1572 12.8817 10.3944 12.6444C10.6317 12.4072 10.9169 12.2886 11.25 12.2886C11.5831 12.2886 11.8683 12.4072 12.1056 12.6444C12.3428 12.8817 12.4614 13.1669 12.4614 13.5C12.4614 13.8331 12.3428 14.1183 12.1056 14.3556C11.8683 14.5928 11.5831 14.7114 11.25 14.7114ZM6.75001 10.2114C6.41689 10.2114 6.1317 10.0928 5.89445 9.85557C5.6572 9.61832 5.53857 9.33314 5.53857 9.00001C5.53857 8.66689 5.6572 8.3817 5.89445 8.14445C6.1317 7.9072 6.41689 7.78857 6.75001 7.78857C7.08314 7.78857 7.36832 7.9072 7.60557 8.14445C7.84282 8.3817 7.96145 8.66689 7.96145 9.00001C7.96145 9.33314 7.84282 9.61832 7.60557 9.85557C7.36832 10.0928 7.08314 10.2114 6.75001 10.2114ZM11.25 10.2114C10.9169 10.2114 10.6317 10.0928 10.3944 9.85557C10.1572 9.61832 10.0386 9.33314 10.0386 9.00001C10.0386 8.66689 10.1572 8.3817 10.3944 8.14445C10.6317 7.9072 10.9169 7.78857 11.25 7.78857C11.5831 7.78857 11.8683 7.9072 12.1056 8.14445C12.3428 8.3817 12.4614 8.66689 12.4614 9.00001C12.4614 9.33314 12.3428 9.61832 12.1056 9.85557C11.8683 10.0928 11.5831 10.2114 11.25 10.2114ZM6.75001 5.71145C6.41689 5.71145 6.1317 5.59282 5.89445 5.35557C5.6572 5.11832 5.53857 4.83314 5.53857 4.50001C5.53857 4.16689 5.6572 3.8817 5.89445 3.64445C6.1317 3.4072 6.41689 3.28857 6.75001 3.28857C7.08314 3.28857 7.36832 3.4072 7.60557 3.64445C7.84282 3.8817 7.96145 4.16689 7.96145 4.50001C7.96145 4.83314 7.84282 5.11832 7.60557 5.35557C7.36832 5.59282 7.08314 5.71145 6.75001 5.71145ZM11.25 5.71145C10.9169 5.71145 10.6317 5.59282 10.3944 5.35557C10.1572 5.11832 10.0386 4.83314 10.0386 4.50001C10.0386 4.16689 10.1572 3.8817 10.3944 3.64445C10.6317 3.4072 10.9169 3.28857 11.25 3.28857C11.5831 3.28857 11.8683 3.4072 12.1056 3.64445C12.3428 3.8817 12.4614 4.16689 12.4614 4.50001C12.4614 4.83314 12.3428 5.11832 12.1056 5.35557C11.8683 5.59282 11.5831 5.71145 11.25 5.71145Z" fill="var(--fill-0, #858585)"/>
</g>
</g>
</g></g></g></g></g></g></g></g></g></svg>
