<svg preserveAspectRatio="none" overflow="visible" style="display: block;" viewBox="0 0 24 24" fill="none" xmlns="http://www.w3.org/2000/svg"><g transform="translate(0 0) scale(1)"><g transform="translate(0 0) scale(1)"><g transform="translate(0 0) scale(1)"><g transform="translate(0 0) scale(1)"><g transform="translate(0 0) scale(1)"><g transform="translate(0 0) scale(1)"><g transform="translate(0 0) scale(1)"><g transform="translate(0 0) scale(1)">
<g id="format_list_bulleted">
<mask id="mask0_246_527" style="mask-type:alpha" maskUnits="userSpaceOnUse" x="0" y="0" width="24" height="24">
<rect id="Bounding box" width="24" height="24" fill="var(--fill-0, #D9D9D9)"/>
</mask>
<g mask="url(#mask0_246_527)">
<path id="format_list_bulleted_2" d="M10.0577 18.75C9.84525 18.75 9.66708 18.6781 9.52325 18.5342C9.37958 18.3904 9.30775 18.2122 9.30775 17.9997C9.30775 17.7871 9.37958 17.609 9.52325 17.4655C9.66708 17.3218 9.84525 17.25 10.0577 17.25H19.75C19.9625 17.25 20.1406 17.3219 20.2843 17.4658C20.4281 17.6096 20.5 17.7878 20.5 18.0003C20.5 18.2129 20.4281 18.391 20.2843 18.5345C20.1406 18.6782 19.9625 18.75 19.75 18.75H10.0577ZM10.0577 12.75C9.84525 12.75 9.66708 12.6781 9.52325 12.5342C9.37958 12.3904 9.30775 12.2123 9.30775 11.9998C9.30775 11.7871 9.37958 11.609 9.52325 11.4655C9.66708 11.3218 9.84525 11.25 10.0577 11.25H19.75C19.9625 11.25 20.1406 11.3219 20.2843 11.4658C20.4281 11.6096 20.5 11.7878 20.5 12.0003C20.5 12.2129 20.4281 12.391 20.2843 12.5345C20.1406 12.6782 19.9625 12.75 19.75 12.75H10.0577ZM10.0577 6.75C9.84525 6.75 9.66708 6.67808 9.52325 6.53425C9.37958 6.39042 9.30775 6.21225 9.30775 5.99975C9.30775 5.78708 9.37958 5.609 9.52325 5.4655C9.66708 5.32183 9.84525 5.25 10.0577 5.25H19.75C19.9625 5.25 20.1406 5.32192 20.2843 5.46575C20.4281 5.60958 20.5 5.78775 20.5 6.00025C20.5 6.21292 20.4281 6.391 20.2843 6.5345C20.1406 6.67817 19.9625 6.75 19.75 6.75H10.0577ZM5.1635 19.6635C4.706 19.6635 4.31442 19.5006 3.98875 19.1747C3.66292 18.8491 3.5 18.4575 3.5 18C3.5 17.5425 3.66292 17.1509 3.98875 16.8253C4.31442 16.4994 4.706 16.3365 5.1635 16.3365C5.621 16.3365 6.01258 16.4994 6.33825 16.8253C6.66408 17.1509 6.827 17.5425 6.827 18C6.827 18.4575 6.66408 18.8491 6.33825 19.1747C6.01258 19.5006 5.621 19.6635 5.1635 19.6635ZM5.1635 13.6635C4.706 13.6635 4.31442 13.5006 3.98875 13.1747C3.66292 12.8491 3.5 12.4575 3.5 12C3.5 11.5425 3.66292 11.1509 3.98875 10.8253C4.31442 10.4994 4.706 10.3365 5.1635 10.3365C5.621 10.3365 6.01258 10.4994 6.33825 10.8253C6.66408 11.1509 6.827 11.5425 6.827 12C6.827 12.4575 6.66408 12.8491 6.33825 13.1747C6.01258 13.5006 5.621 13.6635 5.1635 13.6635ZM5.1635 7.6635C4.706 7.6635 4.31442 7.50058 3.98875 7.17475C3.66292 6.84908 3.5 6.4575 3.5 6C3.5 5.5425 3.66292 5.15092 3.98875 4.82525C4.31442 4.49942 4.706 4.3365 5.1635 4.3365C5.621 4.3365 6.01258 4.49942 6.33825 4.82525C6.66408 5.15092 6.827 5.5425 6.827 6C6.827 6.4575 6.66408 6.84908 6.33825 7.17475C6.01258 7.50058 5.621 7.6635 5.1635 7.6635Z" fill="var(--fill-0, #1A1A1A)"/>
</g>
</g>
</g></g></g></g></g></g></g></g></svg>
