<svg preserveAspectRatio="none" overflow="visible" style="display: block;" viewBox="0 0 24 24" fill="none" xmlns="http://www.w3.org/2000/svg"><g transform="translate(0 0) scale(1)"><g transform="translate(0 0) scale(1)"><g transform="translate(0 0) scale(1)"><g transform="translate(0 0) scale(1)"><g transform="translate(0 0) scale(1)"><g transform="translate(0 0) scale(1)"><g transform="translate(0 0) scale(1)"><g transform="translate(0 0) scale(1)">
<g id="format_h1">
<mask id="mask0_246_539" style="mask-type:alpha" maskUnits="userSpaceOnUse" x="0" y="0" width="24" height="24">
<rect id="Bounding box" width="24" height="24" fill="var(--fill-0, #D9D9D9)"/>
</mask>
<g mask="url(#mask0_246_539)">
<path id="format_h1_2" d="M5.99975 16.75C5.78708 16.75 5.609 16.6781 5.4655 16.5343C5.32183 16.3906 5.25 16.2125 5.25 16V8C5.25 7.7875 5.32192 7.60942 5.46575 7.46575C5.60958 7.32192 5.78775 7.25 6.00025 7.25C6.21292 7.25 6.391 7.32192 6.5345 7.46575C6.67817 7.60942 6.75 7.7875 6.75 8V11.25H11.25V8C11.25 7.7875 11.3219 7.60942 11.4658 7.46575C11.6096 7.32192 11.7878 7.25 12.0003 7.25C12.2129 7.25 12.391 7.32192 12.5345 7.46575C12.6782 7.60942 12.75 7.7875 12.75 8V16C12.75 16.2125 12.6781 16.3906 12.5342 16.5343C12.3904 16.6781 12.2122 16.75 11.9997 16.75C11.7871 16.75 11.609 16.6781 11.4655 16.5343C11.3218 16.3906 11.25 16.2125 11.25 16V12.75H6.75V16C6.75 16.2125 6.67808 16.3906 6.53425 16.5343C6.39042 16.6781 6.21225 16.75 5.99975 16.75ZM17.4998 16.75C17.2871 16.75 17.1089 16.6781 16.9653 16.5343C16.8218 16.3906 16.75 16.2125 16.75 16V8.75H15.5C15.2875 8.75 15.1093 8.67808 14.9655 8.53425C14.8218 8.39042 14.75 8.21225 14.75 7.99975C14.75 7.78708 14.8218 7.609 14.9655 7.4655C15.1093 7.32183 15.2875 7.25 15.5 7.25H17.3413C17.6023 7.25 17.8189 7.33658 17.9913 7.50975C18.1638 7.68308 18.25 7.89775 18.25 8.15375V16C18.25 16.2125 18.1781 16.3906 18.0343 16.5343C17.8904 16.6781 17.7123 16.75 17.4998 16.75Z" fill="var(--fill-0, #1A1A1A)"/>
</g>
</g>
</g></g></g></g></g></g></g></g></svg>
