<svg preserveAspectRatio="none" overflow="visible" style="display: block;" viewBox="0 0 24 24" fill="none" xmlns="http://www.w3.org/2000/svg"><g transform="translate(0 0) scale(1)"><g transform="translate(0 0) scale(1)"><g transform="translate(0 0) scale(1)"><g transform="translate(0 0) scale(1)"><g transform="translate(0 0) scale(1)"><g transform="translate(0 0) scale(1)"><g transform="translate(0 0) scale(1)"><g transform="translate(0 0) scale(1)">
<g id="subscript">
<mask id="mask0_246_535" style="mask-type:alpha" maskUnits="userSpaceOnUse" x="0" y="0" width="24" height="24">
<rect id="Bounding box" width="24" height="24" fill="var(--fill-0, #D9D9D9)"/>
</mask>
<g mask="url(#mask0_246_535)">
<path id="subscript_2" d="M19.596 19.5C19.34 19.5 19.1254 19.4133 18.9523 19.24C18.7789 19.0668 18.6923 18.8522 18.6923 18.596V17.7115C18.6923 17.4555 18.7789 17.2408 18.9523 17.0675C19.1254 16.8943 19.34 16.8077 19.596 16.8077H21.5V15.8845H19.1345C19.0167 15.8845 18.9135 15.8403 18.825 15.752C18.7365 15.6635 18.6923 15.5603 18.6923 15.4423C18.6923 15.3244 18.7365 15.2213 18.825 15.1328C18.9135 15.0443 19.0167 15 19.1345 15H21.4807C21.7367 15 21.9514 15.0866 22.1248 15.2598C22.2979 15.4331 22.3845 15.6478 22.3845 15.9038V16.7885C22.3845 17.0445 22.2979 17.2592 22.1248 17.4325C21.9514 17.6057 21.7367 17.6923 21.4807 17.6923H19.577V18.6152H21.9423C22.0603 18.6152 22.1635 18.6595 22.252 18.748C22.3403 18.8365 22.3845 18.9397 22.3845 19.0577C22.3845 19.1756 22.3403 19.2788 22.252 19.3673C22.1635 19.4558 22.0603 19.5 21.9423 19.5H19.596ZM7.96675 17.6923C7.63208 17.6923 7.38733 17.5502 7.2325 17.2662C7.0775 16.9824 7.08783 16.6969 7.2635 16.4098L10.8462 10.8212L7.598 5.76725C7.4225 5.49042 7.41217 5.21 7.567 4.926C7.722 4.642 7.96058 4.5 8.28275 4.5C8.43142 4.5 8.56692 4.53408 8.68925 4.60225C8.81142 4.67042 8.90925 4.7665 8.98275 4.8905L11.9595 9.59625H12.0212L15.0115 4.88075C15.0845 4.75992 15.1848 4.66625 15.3125 4.59975C15.44 4.53325 15.5722 4.5 15.709 4.5C16.0445 4.5 16.2868 4.642 16.436 4.926C16.585 5.21 16.5717 5.49558 16.3962 5.78275L13.1192 10.8212L16.7365 16.4098C16.9122 16.6969 16.9197 16.9824 16.759 17.2662C16.5985 17.5502 16.3577 17.6923 16.0365 17.6923C15.8892 17.6923 15.7541 17.6582 15.6313 17.59C15.5084 17.5218 15.4102 17.4258 15.3365 17.302L12.0212 12.123H11.9595L8.6635 17.302C8.5905 17.4258 8.49017 17.5218 8.3625 17.59C8.235 17.6582 8.10308 17.6923 7.96675 17.6923Z" fill="var(--fill-0, #1A1A1A)"/>
</g>
</g>
</g></g></g></g></g></g></g></g></svg>
